<svg xmlns="http://www.w3.org/2000/svg" xmlns:xlink="http://www.w3.org/1999/xlink" viewBox="0 0 64 64" version="1.1">
    <g id="surface1">
        <path style=" " d="M 11 6 C 9.300781 6 8 7.300781 8 9 L 8 51 C 8 52.699219 9.300781 54 11 54 L 12 54 L 12 55 C 12 55.800781 12.300781 56.597656 12.902344 57.097656 C 13.5 57.699219 14.199219 58 15 58 L 53 58 C 54.699219 58 56 56.699219 56 55 L 56 13 C 56 11.300781 54.699219 10 53 10 L 52 10 L 52 9 C 52 7.300781 50.699219 6 49 6 Z M 11 8 L 49 8 C 49.601563 8 50 8.398438 50 9 L 50 51 C 50 51.601563 49.601563 52 49 52 L 11 52 C 10.398438 52 10 51.5 10 51 L 10 9 C 10 8.398438 10.398438 8 11 8 Z M 15 10 C 14.199219 10 13.5 10.300781 12.902344 10.902344 C 12.300781 11.5 12 12.199219 12 13 L 12 39 C 12 39.699219 12.300781 40.5 12.902344 41.097656 C 13.402344 41.699219 14.199219 42 15 42 L 45 42 C 45.800781 42 46.597656 41.699219 47.097656 41.097656 C 47.699219 40.5 48 39.800781 48 39 L 48 13 C 48 12.300781 47.699219 11.5 47.097656 10.902344 C 46.597656 10.300781 45.800781 10 45 10 Z M 15 12 L 45 12 C 45.300781 12 45.5 12.101563 45.699219 12.300781 C 45.898438 12.402344 46 12.800781 46 13 L 46 39.097656 C 46 39.300781 45.898438 39.601563 45.699219 39.800781 C 45.5 40 45.300781 40.097656 45 40.097656 L 15 40.097656 C 14.699219 40.097656 14.5 40 14.300781 39.800781 C 14.101563 39.699219 14 39.300781 14 39.097656 L 14 13 C 14 12.800781 14.101563 12.5 14.300781 12.300781 C 14.5 12.101563 14.699219 12 15 12 Z M 52 12 L 53 12 C 53.601563 12 54 12.398438 54 13 L 54 55 C 54 55.601563 53.601563 56 53 56 L 15 56 C 14.699219 56 14.5 55.898438 14.300781 55.699219 C 14.101563 55.5 14 55.300781 14 55 L 14 54 L 49 54 C 50.699219 54 52 52.699219 52 51 Z M 19 14 C 17.300781 14 16 15.300781 16 17 C 16 18.699219 17.398438 20 19 20 C 20.601563 20 22 18.699219 22 17 C 22 15.300781 20.699219 14 19 14 Z M 33 15 C 30.800781 15 29 16.800781 29 19 L 29 19.199219 C 27.101563 20.597656 26 22.699219 26 25 C 26 28.601563 28.601563 31.402344 32 31.902344 L 32 37 C 32 37.601563 32.398438 38 33 38 C 33.601563 38 34 37.601563 34 37 L 34 31.902344 C 37.398438 31.402344 40 28.5 40 25 C 40 22.699219 38.898438 20.601563 37 19.300781 L 37 19 C 37 16.800781 35.199219 15 33 15 Z M 19 15.597656 C 19.800781 15.597656 20.402344 16.199219 20.402344 17 C 20.402344 17.800781 19.800781 18.402344 19 18.402344 C 18.199219 18.402344 17.597656 17.800781 17.597656 17 C 17.597656 16.199219 18.199219 15.597656 19 15.597656 Z M 33 16.597656 C 34.101563 16.597656 35.097656 17.597656 35.097656 18.699219 C 35.097656 18.800781 35 19 35 19.199219 C 34.898438 19.597656 35.101563 20.199219 35.5 20.402344 C 37.199219 21.402344 38.300781 23.199219 38.300781 25.097656 C 38.300781 27.699219 36.5 29.902344 34 30.300781 L 34 28 C 34 27.398438 33.601563 27 33 27 C 32.398438 27 32 27.398438 32 28 L 32 30.300781 C 29.5 29.800781 27.699219 27.699219 27.699219 25.097656 C 27.699219 23.199219 28.800781 21.402344 30.5 20.402344 C 30.898438 20.199219 31.101563 19.699219 31 19.199219 C 30.898438 19 30.902344 18.898438 30.902344 18.699219 C 30.902344 17.5 31.898438 16.597656 33 16.597656 Z M 33 22 C 32.398438 22 32 22.398438 32 23 L 32 25 C 32 25.601563 32.398438 26 33 26 C 33.601563 26 34 25.601563 34 25 L 34 23 C 34 22.398438 33.601563 22 33 22 Z M 18 34 C 17.398438 34 17 34.398438 17 35 L 17 37 C 17 37.601563 17.398438 38 18 38 C 18.601563 38 19 37.601563 19 37 L 19 35 C 19 34.398438 18.601563 34 18 34 Z M 23 34 C 22.398438 34 22 34.398438 22 35 L 22 37 C 22 37.601563 22.398438 38 23 38 C 23.601563 38 24 37.601563 24 37 L 24 35 C 24 34.398438 23.601563 34 23 34 Z M 28 34 C 27.398438 34 27 34.398438 27 35 L 27 37 C 27 37.601563 27.398438 38 28 38 C 28.601563 38 29 37.601563 29 37 L 29 35 C 29 34.398438 28.601563 34 28 34 Z M 38 34 C 37.398438 34 37 34.398438 37 35 L 37 37 C 37 37.601563 37.398438 38 38 38 C 38.601563 38 39 37.601563 39 37 L 39 35 C 39 34.398438 38.601563 34 38 34 Z M 43 34 C 42.398438 34 42 34.398438 42 35 L 42 37 C 42 37.601563 42.398438 38 43 38 C 43.601563 38 44 37.601563 44 37 L 44 35 C 44 34.398438 43.601563 34 43 34 Z M 13 46 C 12.398438 46 12 46.398438 12 47 C 12 47.601563 12.398438 48 13 48 L 17 48 C 17.601563 48 18 47.601563 18 47 C 18 46.398438 17.601563 46 17 46 Z M 21 46 C 20.398438 46 20 46.398438 20 47 C 20 47.601563 20.5 48 21 48 L 29 48 C 29.601563 48 30 47.601563 30 47 C 30 46.398438 29.5 46 29 46 Z "></path>
    </g>
</svg>