<svg xmlns="http://www.w3.org/2000/svg" xmlns:xlink="http://www.w3.org/1999/xlink" viewBox="0 0 80 80" version="1.1">
    <g id="surface1">
        <path style=" " d="M 30.25 8 C 26.507813 8 23.261719 10.8125 22.441406 14.769531 L 21.566406 19 L 13 19 C 8.582031 19 5 22.582031 5 27 L 5 63 C 5 67.417969 8.582031 71 13 71 L 67 71 C 71.417969 71 75 67.417969 75 63 L 75 27 C 75 22.582031 71.417969 19 67 19 L 58.433594 19 L 57.558594 14.769531 C 56.738281 10.8125 53.492188 8 49.75 8 Z M 30.25 10 L 49.75 10 C 52.5625 10 54.964844 12.128906 55.597656 15.175781 L 56.472656 19.40625 C 56.667969 20.335938 57.484375 21 58.433594 21 L 67 21 C 70.308594 21 73 23.691406 73 27 L 73 63 C 73 66.308594 70.308594 69 67 69 L 13 69 C 9.691406 69 7 66.308594 7 63 L 7 27 C 7 23.691406 9.691406 21 13 21 L 21.566406 21 C 22.515625 21 23.332031 20.335938 23.527344 19.40625 L 24.402344 15.175781 C 25.035156 12.128906 27.4375 10 30.25 10 Z M 69 26 C 68.449219 26 68 26.449219 68 27 C 68 27.550781 68.449219 28 69 28 C 69.550781 28 70 27.550781 70 27 C 70 26.449219 69.550781 26 69 26 Z M 40 28 C 30.609375 28 23 35.609375 23 45 C 23 54.390625 30.609375 62 40 62 C 49.390625 62 57 54.390625 57 45 C 57 35.609375 49.390625 28 40 28 Z M 40 30 C 48.269531 30 55 36.730469 55 45 C 55 53.269531 48.269531 60 40 60 C 31.730469 60 25 53.269531 25 45 C 25 36.730469 31.730469 30 40 30 Z M 69 30 C 68.449219 30 68 30.449219 68 31 C 68 31.550781 68.449219 32 69 32 C 69.550781 32 70 31.550781 70 31 C 70 30.449219 69.550781 30 69 30 Z M 40 32 C 39.449219 32 39 32.449219 39 33 C 39 33.550781 39.449219 34 40 34 C 40.550781 34 41 33.550781 41 33 C 41 32.449219 40.550781 32 40 32 Z M 35.519531 32.871094 C 35.386719 32.867188 35.253906 32.894531 35.128906 32.941406 C 34.882813 33.042969 34.6875 33.234375 34.585938 33.480469 C 34.480469 33.722656 34.476563 34 34.578125 34.246094 C 34.675781 34.492188 34.871094 34.6875 35.113281 34.792969 C 35.359375 34.894531 35.636719 34.898438 35.878906 34.796875 C 36.128906 34.699219 36.324219 34.507813 36.425781 34.261719 C 36.53125 34.019531 36.535156 33.742188 36.433594 33.496094 C 36.28125 33.125 35.921875 32.878906 35.519531 32.871094 Z M 44.722656 32.957031 C 44.308594 32.945313 43.933594 33.1875 43.769531 33.566406 C 43.554688 34.078125 43.792969 34.664063 44.300781 34.878906 C 44.808594 35.09375 45.394531 34.855469 45.609375 34.347656 C 45.828125 33.839844 45.589844 33.253906 45.082031 33.039063 C 44.96875 32.992188 44.847656 32.964844 44.722656 32.957031 Z M 69 34 C 68.449219 34 68 34.449219 68 35 C 68 35.550781 68.449219 36 69 36 C 69.550781 36 70 35.550781 70 35 C 70 34.449219 69.550781 34 69 34 Z M 31.53125 35.515625 C 31.257813 35.507813 30.996094 35.613281 30.808594 35.808594 C 30.417969 36.195313 30.417969 36.832031 30.808594 37.21875 C 30.996094 37.410156 31.25 37.515625 31.515625 37.515625 C 31.78125 37.515625 32.035156 37.410156 32.222656 37.21875 C 32.613281 36.832031 32.613281 36.195313 32.222656 35.808594 C 32.039063 35.621094 31.789063 35.515625 31.53125 35.515625 Z M 48.5 35.515625 C 48.230469 35.511719 47.96875 35.617188 47.777344 35.808594 C 47.386719 36.199219 47.386719 36.832031 47.777344 37.222656 C 48.167969 37.613281 48.800781 37.613281 49.191406 37.222656 C 49.582031 36.832031 49.582031 36.199219 49.191406 35.808594 C 49.007813 35.625 48.761719 35.519531 48.5 35.515625 Z M 69 38 C 68.449219 38 68 38.449219 68 39 C 68 39.550781 68.449219 40 69 40 C 69.550781 40 70 39.550781 70 39 C 70 38.449219 69.550781 38 69 38 Z M 28.984375 39.3125 C 28.574219 39.300781 28.195313 39.542969 28.035156 39.921875 C 27.820313 40.429688 28.054688 41.015625 28.5625 41.234375 C 29.074219 41.449219 29.660156 41.210938 29.875 40.703125 C 30.089844 40.195313 29.855469 39.609375 29.34375 39.390625 C 29.230469 39.34375 29.109375 39.316406 28.984375 39.3125 Z M 51.140625 39.5 C 51.007813 39.5 50.875 39.523438 50.75 39.574219 C 50.503906 39.671875 50.308594 39.867188 50.207031 40.109375 C 50.101563 40.355469 50.097656 40.632813 50.199219 40.875 C 50.40625 41.386719 50.988281 41.636719 51.5 41.429688 C 51.746094 41.332031 51.941406 41.136719 52.046875 40.894531 C 52.148438 40.648438 52.152344 40.371094 52.050781 40.125 C 51.902344 39.753906 51.542969 39.507813 51.140625 39.5 Z M 69 42 C 68.449219 42 68 42.449219 68 43 C 68 43.550781 68.449219 44 69 44 C 69.550781 44 70 43.550781 70 43 C 70 42.449219 69.550781 42 69 42 Z M 28 44 C 27.449219 44 27 44.449219 27 45 C 27 45.550781 27.449219 46 28 46 C 28.550781 46 29 45.550781 29 45 C 29 44.449219 28.550781 44 28 44 Z M 52 44 C 51.449219 44 51 44.449219 51 45 C 51 45.550781 51.449219 46 52 46 C 52.550781 46 53 45.550781 53 45 C 53 44.449219 52.550781 44 52 44 Z M 69 46 C 68.449219 46 68 46.449219 68 47 C 68 47.550781 68.449219 48 69 48 C 69.550781 48 70 47.550781 70 47 C 70 46.449219 69.550781 46 69 46 Z M 28.890625 48.488281 C 28.757813 48.488281 28.625 48.515625 28.5 48.5625 C 27.988281 48.769531 27.742188 49.351563 27.949219 49.863281 C 28.152344 50.375 28.734375 50.625 29.25 50.417969 C 29.496094 50.320313 29.691406 50.125 29.792969 49.882813 C 29.898438 49.636719 29.902344 49.359375 29.800781 49.113281 C 29.648438 48.742188 29.292969 48.496094 28.890625 48.488281 Z M 51.078125 48.699219 C 50.664063 48.683594 50.285156 48.925781 50.125 49.304688 C 50.019531 49.550781 50.019531 49.824219 50.117188 50.070313 C 50.21875 50.316406 50.410156 50.511719 50.65625 50.617188 C 51.164063 50.832031 51.75 50.597656 51.964844 50.089844 C 52.070313 49.84375 52.070313 49.566406 51.972656 49.320313 C 51.871094 49.074219 51.679688 48.878906 51.4375 48.777344 C 51.320313 48.726563 51.199219 48.699219 51.078125 48.699219 Z M 69 50 C 68.449219 50 68 50.449219 68 51 C 68 51.550781 68.449219 52 69 52 C 69.550781 52 70 51.550781 70 51 C 70 50.449219 69.550781 50 69 50 Z M 31.53125 52.484375 C 31.257813 52.480469 30.996094 52.585938 30.808594 52.777344 C 30.417969 53.167969 30.417969 53.800781 30.808594 54.191406 C 31.195313 54.582031 31.832031 54.582031 32.21875 54.191406 C 32.609375 53.800781 32.609375 53.167969 32.21875 52.777344 C 32.035156 52.59375 31.789063 52.488281 31.53125 52.484375 Z M 48.5 52.484375 C 48.226563 52.480469 47.96875 52.585938 47.777344 52.777344 C 47.589844 52.964844 47.484375 53.21875 47.484375 53.484375 C 47.484375 53.75 47.589844 54.003906 47.777344 54.191406 C 48.167969 54.582031 48.800781 54.582031 49.191406 54.191406 C 49.378906 54.003906 49.484375 53.75 49.484375 53.484375 C 49.484375 53.21875 49.378906 52.964844 49.191406 52.777344 C 49.007813 52.59375 48.757813 52.488281 48.5 52.484375 Z M 69 54 C 68.449219 54 68 54.449219 68 55 C 68 55.550781 68.449219 56 69 56 C 69.550781 56 70 55.550781 70 55 C 70 54.449219 69.550781 54 69 54 Z M 35.339844 55.050781 C 34.929688 55.039063 34.550781 55.277344 34.390625 55.65625 C 34.285156 55.902344 34.28125 56.179688 34.382813 56.425781 C 34.480469 56.671875 34.671875 56.867188 34.917969 56.96875 C 35.164063 57.074219 35.4375 57.078125 35.683594 56.976563 C 35.929688 56.878906 36.125 56.6875 36.230469 56.441406 C 36.335938 56.195313 36.335938 55.921875 36.238281 55.675781 C 36.136719 55.429688 35.945313 55.230469 35.699219 55.128906 C 35.585938 55.082031 35.464844 55.054688 35.339844 55.050781 Z M 44.511719 55.125 C 44.375 55.121094 44.242188 55.144531 44.121094 55.195313 C 43.871094 55.292969 43.675781 55.488281 43.574219 55.730469 C 43.46875 55.976563 43.464844 56.253906 43.566406 56.5 C 43.664063 56.746094 43.859375 56.941406 44.101563 57.042969 C 44.347656 57.148438 44.625 57.152344 44.871094 57.050781 C 45.117188 56.953125 45.3125 56.757813 45.414063 56.515625 C 45.519531 56.269531 45.523438 55.992188 45.421875 55.75 C 45.269531 55.375 44.910156 55.128906 44.511719 55.125 Z M 40 56 C 39.449219 56 39 56.449219 39 57 C 39 57.550781 39.449219 58 40 58 C 40.550781 58 41 57.550781 41 57 C 41 56.449219 40.550781 56 40 56 Z M 69 58 C 68.449219 58 68 58.449219 68 59 C 68 59.550781 68.449219 60 69 60 C 69.550781 60 70 59.550781 70 59 C 70 58.449219 69.550781 58 69 58 Z M 69 62 C 68.449219 62 68 62.449219 68 63 C 68 63.550781 68.449219 64 69 64 C 69.550781 64 70 63.550781 70 63 C 70 62.449219 69.550781 62 69 62 Z "></path>
    </g>
</svg>