<svg xmlns="http://www.w3.org/2000/svg" xmlns:xlink="http://www.w3.org/1999/xlink" viewBox="0 0 80 80" version="1.1">
    <g id="surface1">
        <path style=" " d="M 34 3 C 32.90625 3 32 3.90625 32 5 L 32 8 C 32 9.09375 32.90625 10 34 10 L 36 10 L 36 12.265625 C 20.777344 14.230469 9 27.246094 9 43 C 9 60.109375 22.890625 74 40 74 C 57.109375 74 71 60.109375 71 43 C 71 35.058594 68.003906 27.816406 63.085938 22.328125 L 64.5 20.914063 C 65.253906 21.308594 66.214844 21.199219 66.84375 20.570313 L 67.964844 19.453125 L 67.964844 19.449219 C 68.738281 18.675781 68.738281 17.394531 67.964844 16.621094 L 64.378906 13.035156 C 63.992188 12.648438 63.480469 12.457031 62.964844 12.457031 C 62.449219 12.457031 61.9375 12.648438 61.550781 13.035156 L 60.429688 14.15625 C 59.800781 14.785156 59.691406 15.746094 60.085938 16.5 L 58.464844 18.121094 C 54.316406 15.039063 49.375 12.960938 44 12.265625 L 44 10 L 46 10 C 47.09375 10 48 9.09375 48 8 L 48 5 C 48 3.90625 47.09375 3 46 3 Z M 34 5 L 46 5 L 46 8 L 34 8 Z M 38 10 L 42 10 L 42 12 L 38 12 Z M 40 14 C 56.027344 14 69 26.972656 69 43 C 69 59.027344 56.027344 72 40 72 C 23.972656 72 11 59.027344 11 43 C 11 26.972656 23.972656 14 40 14 Z M 62.964844 14.449219 L 66.550781 18.035156 L 65.429688 19.15625 L 61.84375 15.570313 Z M 40 17 C 39.449219 17 39 17.449219 39 18 C 39 18.550781 39.449219 19 40 19 C 40.550781 19 41 18.550781 41 18 C 41 17.449219 40.550781 17 40 17 Z M 33.539063 17.851563 C 33.515625 17.851563 33.492188 17.851563 33.46875 17.855469 C 33.402344 17.859375 33.335938 17.867188 33.269531 17.886719 C 32.738281 18.03125 32.421875 18.578125 32.5625 19.109375 C 32.707031 19.644531 33.253906 19.960938 33.789063 19.816406 C 34.324219 19.675781 34.640625 19.128906 34.496094 18.59375 C 34.378906 18.160156 33.988281 17.855469 33.539063 17.851563 Z M 46.460938 17.855469 C 46.011719 17.859375 45.621094 18.160156 45.503906 18.59375 C 45.359375 19.128906 45.675781 19.675781 46.210938 19.820313 C 46.746094 19.964844 47.292969 19.648438 47.4375 19.113281 C 47.578125 18.578125 47.261719 18.03125 46.730469 17.890625 C 46.640625 17.863281 46.550781 17.851563 46.460938 17.855469 Z M 61.429688 17.984375 L 63.015625 19.570313 L 61.699219 20.886719 C 61.164063 20.359375 60.613281 19.855469 60.042969 19.371094 Z M 27.476563 20.347656 C 27.308594 20.351563 27.144531 20.398438 27 20.484375 C 26.769531 20.613281 26.601563 20.832031 26.53125 21.089844 C 26.464844 21.347656 26.5 21.621094 26.632813 21.847656 C 26.765625 22.078125 26.984375 22.246094 27.242188 22.316406 C 27.496094 22.382813 27.769531 22.347656 28 22.214844 C 28.476563 21.9375 28.640625 21.328125 28.363281 20.847656 C 28.183594 20.53125 27.84375 20.339844 27.476563 20.347656 Z M 52.453125 20.351563 C 52.113281 20.367188 51.804688 20.554688 51.632813 20.847656 C 51.355469 21.328125 51.523438 21.9375 52 22.214844 C 52.476563 22.492188 53.089844 22.328125 53.363281 21.847656 C 53.640625 21.371094 53.476563 20.761719 53 20.484375 C 52.832031 20.386719 52.644531 20.34375 52.453125 20.351563 Z M 22.335938 24.324219 C 22.066406 24.316406 21.804688 24.421875 21.613281 24.613281 C 21.222656 25.003906 21.222656 25.640625 21.613281 26.03125 C 21.800781 26.21875 22.054688 26.324219 22.320313 26.324219 C 22.585938 26.324219 22.839844 26.21875 23.03125 26.03125 C 23.417969 25.640625 23.417969 25.003906 23.03125 24.613281 C 22.84375 24.429688 22.597656 24.324219 22.335938 24.324219 Z M 57.691406 24.324219 C 57.421875 24.320313 57.160156 24.425781 56.96875 24.613281 C 56.582031 25.003906 56.582031 25.640625 56.96875 26.03125 C 57.359375 26.417969 57.996094 26.417969 58.386719 26.03125 C 58.773438 25.640625 58.773438 25.003906 58.386719 24.613281 C 58.199219 24.429688 57.953125 24.324219 57.691406 24.324219 Z M 26.308594 28.390625 L 24.917969 29.828125 L 36.535156 41.046875 C 36.203125 41.625 36 42.289063 36 43 C 36 45.199219 37.800781 47 40 47 C 40.738281 47 41.421875 46.785156 42.015625 46.433594 L 44.03125 48.449219 L 45.449219 47.03125 L 43.433594 45.015625 C 43.785156 44.421875 44 43.738281 44 43 C 44 40.800781 42.199219 39 40 39 C 39.238281 39 38.53125 39.226563 37.921875 39.605469 Z M 61.625 29.5 C 61.457031 29.503906 61.292969 29.550781 61.148438 29.632813 C 60.671875 29.910156 60.507813 30.519531 60.78125 31 C 61.058594 31.476563 61.671875 31.640625 62.148438 31.363281 C 62.378906 31.234375 62.546875 31.015625 62.617188 30.757813 C 62.683594 30.5 62.648438 30.226563 62.515625 30 C 62.332031 29.683594 61.992188 29.492188 61.625 29.5 Z M 18.300781 29.5 C 17.964844 29.519531 17.65625 29.707031 17.484375 30 C 17.351563 30.230469 17.316406 30.503906 17.382813 30.757813 C 17.453125 31.015625 17.621094 31.234375 17.847656 31.367188 C 18.328125 31.644531 18.9375 31.476563 19.214844 31 C 19.492188 30.523438 19.328125 29.910156 18.847656 29.636719 C 18.683594 29.539063 18.492188 29.492188 18.300781 29.5 Z M 15.84375 35.53125 C 15.394531 35.535156 15.003906 35.835938 14.886719 36.269531 C 14.742188 36.804688 15.058594 37.351563 15.59375 37.496094 C 16.128906 37.640625 16.675781 37.324219 16.816406 36.789063 C 16.960938 36.253906 16.644531 35.707031 16.109375 35.5625 C 16.023438 35.539063 15.933594 35.527344 15.84375 35.53125 Z M 64.1875 35.53125 C 64.085938 35.527344 63.984375 35.539063 63.890625 35.566406 C 63.355469 35.710938 63.039063 36.257813 63.183594 36.792969 C 63.324219 37.324219 63.871094 37.640625 64.40625 37.5 C 64.941406 37.355469 65.257813 36.808594 65.113281 36.273438 C 65 35.847656 64.625 35.546875 64.1875 35.53125 Z M 40 41 C 41.117188 41 42 41.882813 42 43 C 42 44.117188 41.117188 45 40 45 C 38.882813 45 38 44.117188 38 43 C 38 41.882813 38.882813 41 40 41 Z M 15 42 C 14.449219 42 14 42.449219 14 43 C 14 43.550781 14.449219 44 15 44 C 15.550781 44 16 43.550781 16 43 C 16 42.449219 15.550781 42 15 42 Z M 65 42 C 64.449219 42 64 42.449219 64 43 C 64 43.550781 64.449219 44 65 44 C 65.550781 44 66 43.550781 66 43 C 66 42.449219 65.550781 42 65 42 Z M 15.890625 48.46875 C 15.789063 48.46875 15.6875 48.476563 15.59375 48.503906 C 15.058594 48.648438 14.742188 49.195313 14.886719 49.730469 C 15.027344 50.261719 15.574219 50.578125 16.109375 50.4375 C 16.644531 50.292969 16.960938 49.746094 16.816406 49.210938 C 16.703125 48.789063 16.328125 48.488281 15.890625 48.46875 Z M 64.140625 48.472656 C 63.6875 48.476563 63.296875 48.78125 63.183594 49.214844 C 63.039063 49.75 63.355469 50.296875 63.890625 50.4375 C 64.421875 50.582031 64.96875 50.265625 65.113281 49.734375 C 65.257813 49.199219 64.941406 48.652344 64.40625 48.507813 C 64.320313 48.484375 64.230469 48.472656 64.140625 48.472656 Z M 18.324219 54.5 C 18.15625 54.503906 17.996094 54.550781 17.847656 54.632813 C 17.371094 54.910156 17.207031 55.519531 17.484375 56 C 17.613281 56.226563 17.832031 56.394531 18.089844 56.464844 C 18.347656 56.535156 18.621094 56.5 18.847656 56.363281 C 19.078125 56.234375 19.246094 56.015625 19.316406 55.757813 C 19.382813 55.5 19.347656 55.226563 19.214844 55 C 19.03125 54.683594 18.691406 54.492188 18.324219 54.5 Z M 61.601563 54.5 C 61.261719 54.519531 60.953125 54.707031 60.78125 55 C 60.507813 55.480469 60.671875 56.089844 61.148438 56.367188 C 61.378906 56.5 61.652344 56.535156 61.90625 56.46875 C 62.164063 56.398438 62.382813 56.230469 62.515625 56 C 62.648438 55.773438 62.683594 55.5 62.617188 55.242188 C 62.546875 54.984375 62.378906 54.765625 62.148438 54.636719 C 61.984375 54.539063 61.792969 54.492188 61.601563 54.5 Z M 22.335938 59.675781 C 22.066406 59.675781 21.804688 59.78125 21.613281 59.96875 C 21.226563 60.359375 21.226563 60.996094 21.613281 61.386719 C 22.003906 61.773438 22.640625 61.773438 23.03125 61.386719 C 23.417969 60.996094 23.417969 60.359375 23.03125 59.96875 C 22.84375 59.785156 22.597656 59.679688 22.335938 59.675781 Z M 57.691406 59.675781 C 57.421875 59.675781 57.160156 59.78125 56.96875 59.96875 C 56.582031 60.359375 56.582031 60.996094 56.96875 61.386719 C 57.359375 61.773438 57.996094 61.773438 58.386719 61.386719 C 58.773438 60.996094 58.773438 60.359375 58.386719 59.96875 C 58.199219 59.785156 57.953125 59.679688 57.691406 59.675781 Z M 52.472656 63.648438 C 52.308594 63.652344 52.144531 63.699219 52 63.78125 C 51.519531 64.058594 51.355469 64.671875 51.632813 65.148438 C 51.910156 65.625 52.519531 65.792969 53 65.515625 C 53.226563 65.382813 53.394531 65.164063 53.464844 64.90625 C 53.535156 64.652344 53.5 64.378906 53.363281 64.148438 C 53.183594 63.832031 52.839844 63.640625 52.472656 63.648438 Z M 27.453125 63.652344 C 27.109375 63.667969 26.800781 63.855469 26.632813 64.152344 C 26.355469 64.628906 26.523438 65.242188 27 65.515625 C 27.476563 65.792969 28.089844 65.628906 28.363281 65.152344 C 28.5 64.921875 28.535156 64.648438 28.464844 64.394531 C 28.398438 64.136719 28.230469 63.917969 28 63.785156 C 27.832031 63.6875 27.644531 63.644531 27.453125 63.652344 Z M 46.480469 66.148438 C 46.453125 66.148438 46.429688 66.148438 46.40625 66.152344 C 46.339844 66.15625 46.273438 66.167969 46.210938 66.183594 C 45.953125 66.25 45.734375 66.417969 45.601563 66.648438 C 45.46875 66.878906 45.433594 67.152344 45.5 67.40625 C 45.570313 67.664063 45.738281 67.882813 45.96875 68.015625 C 46.199219 68.148438 46.472656 68.183594 46.730469 68.113281 C 47.261719 67.972656 47.578125 67.425781 47.4375 66.890625 C 47.320313 66.457031 46.929688 66.152344 46.480469 66.148438 Z M 33.519531 66.152344 C 33.070313 66.152344 32.679688 66.457031 32.5625 66.890625 C 32.417969 67.425781 32.734375 67.972656 33.269531 68.113281 C 33.804688 68.257813 34.351563 67.941406 34.496094 67.40625 C 34.636719 66.875 34.320313 66.328125 33.785156 66.183594 C 33.699219 66.160156 33.609375 66.148438 33.519531 66.152344 Z M 40 67 C 39.449219 67 39 67.449219 39 68 C 39 68.550781 39.449219 69 40 69 C 40.550781 69 41 68.550781 41 68 C 41 67.449219 40.550781 67 40 67 Z "></path>
    </g>
</svg>