<svg xmlns="http://www.w3.org/2000/svg" xmlns:xlink="http://www.w3.org/1999/xlink" viewBox="0 0 50 50" version="1.1">
    <g id="surface1">
        <path style=" " d="M 25 1 C 20.695313 1 16.652344 2.136719 13.15625 4.125 C 13.027344 4.171875 12.910156 4.246094 12.8125 4.34375 C 7.597656 7.429688 3.644531 12.425781 1.9375 18.375 C 1.78125 18.570313 1.703125 18.8125 1.71875 19.0625 C 1.234375 20.957031 1 22.953125 1 25 C 1 29.214844 2.089844 33.179688 4 36.625 C 4.035156 36.882813 4.167969 37.121094 4.375 37.28125 C 8.566406 44.296875 16.242188 49 25 49 C 29.308594 49 33.34375 47.835938 36.84375 45.84375 C 36.875 45.835938 36.90625 45.824219 36.9375 45.8125 C 44.140625 41.667969 49 33.898438 49 25 C 49 20.691406 47.839844 16.652344 45.84375 13.15625 C 45.835938 13.136719 45.824219 13.113281 45.8125 13.09375 C 45.808594 13.085938 45.816406 13.070313 45.8125 13.0625 C 45.777344 12.996094 45.734375 12.933594 45.6875 12.875 C 42.574219 7.589844 37.507813 3.597656 31.46875 1.90625 C 31.378906 1.859375 31.285156 1.828125 31.1875 1.8125 C 29.214844 1.285156 27.140625 1 25 1 Z M 25 3 C 26.722656 3 28.394531 3.191406 30 3.5625 L 30 20.09375 L 15.1875 5.28125 C 18.140625 3.808594 21.472656 3 25 3 Z M 32 4.15625 C 36.878906 5.792969 41.007813 9.085938 43.6875 13.375 L 32 25.0625 Z M 13.375 6.3125 L 25.0625 18 L 4.15625 18 C 5.792969 13.117188 9.082031 8.988281 13.375 6.3125 Z M 44.6875 15.1875 C 46.164063 18.140625 47 21.46875 47 25 C 47 26.722656 46.808594 28.394531 46.4375 30 L 29.875 30 L 31.5625 28.28125 C 31.644531 28.21875 31.71875 28.144531 31.78125 28.0625 Z M 3.5625 20 L 20.09375 20 L 18.34375 21.78125 C 18.296875 21.820313 18.257813 21.859375 18.21875 21.90625 L 5.3125 34.78125 C 3.84375 31.835938 3 28.519531 3 25 C 3 23.277344 3.191406 21.605469 3.5625 20 Z M 22.90625 20 L 27.0625 20 L 30 22.9375 L 30 27.0625 L 27.0625 30 L 22.90625 30 L 20 27.09375 L 20 22.90625 Z M 18 24.90625 L 18 27.28125 C 17.972656 27.414063 17.972656 27.554688 18 27.6875 L 18 45.84375 C 13.109375 44.203125 8.992188 40.890625 6.3125 36.59375 Z M 20 29.90625 L 21.53125 31.4375 C 21.621094 31.621094 21.761719 31.773438 21.9375 31.875 L 22 31.875 C 22.011719 31.886719 22.019531 31.894531 22.03125 31.90625 L 34.8125 44.71875 C 31.859375 46.191406 28.527344 47 25 47 C 23.277344 47 21.605469 46.808594 20 46.4375 Z M 24.90625 32 L 27.28125 32 C 27.414063 32.027344 27.554688 32.027344 27.6875 32 L 45.84375 32 C 44.207031 36.882813 40.917969 41.011719 36.625 43.6875 Z "></path>
    </g>
</svg>