<svg height='300px' width='300px'  fill="#000000" xmlns="http://www.w3.org/2000/svg" xmlns:xlink="http://www.w3.org/1999/xlink" xml:space="preserve" version="1.1" style="shape-rendering:geometricPrecision;text-rendering:geometricPrecision;image-rendering:optimizeQuality;" viewBox="0 0 50000 50000" x="0px" y="0px" fill-rule="evenodd" clip-rule="evenodd"><defs><style type="text/css">
   
    .fil0 {fill:#000000;fill-rule:nonzero}
   
  </style></defs><g><path class="fil0" d="M45410.28 16290.63c0,-144.63 117.25,-261.88 261.88,-261.88 144.63,0 261.88,117.25 261.88,261.88l1537.78 20309.85c66.78,1116.07 -759.39,2072.01 -1875.02,2157.75l-39194.44 2427.38c-557.17,34.49 -1076.78,-162.19 -1466.95,-506.85 -390.67,-345.1 -651,-838.61 -688.58,-1396.73l-27.41 -407.18c-20.2,-299.83 25.28,-208.07 -240.05,-302.9 -287.14,-102.65 -544.96,-268.21 -756.6,-479.86 -368.7,-368.71 -597.57,-877.53 -597.57,-1437.42l0 -440.74c0,-307.45 50.43,-225.13 -215.01,-303.09 -896.79,-263.55 -1354.8,-1161.3 -1295.1,-2088.17 463.78,-7198.73 1478.17,-15909.07 1478.17,-22944.89 80.26,-1102.16 1037.8,-1955.35 2145.07,-1884.03l36396.14 2650.46c340.9,6.65 336.18,523.7 -5.21,523.7l-36469.07 0c-830.64,0 -1511.22,680.59 -1511.22,1511.23l0 12466.03c3120.37,1.49 6673.47,33.55 10167.5,377.48 2293.85,225.8 4557.05,586.49 6647.32,1161.75 951.09,261.76 1890.51,574.05 2800.72,954.42 488.41,204.09 373.14,237.2 889.03,109.92 1167.06,-287.93 2296.2,-589.67 3453.44,-836.88 336.41,-69.96 442.77,441.54 106.38,511.49 -1074.56,224.99 -2143.24,475.82 -3203.93,758.45 -510.2,135.91 -671.39,188.02 -1110.1,510.33 -2344.82,1722.86 -2846.66,5651.12 -1531.25,8122.41 210,394.53 150.79,351.35 572.11,351.35l21958.87 0c830.62,0 1511.22,-680.6 1511.22,-1511.22l0 -9842.08c0,-301.13 47.29,-252.39 -255.98,-246.35 -1268.81,25.32 -2536.3,72.85 -3803.68,138.18 -343.14,17.49 -369.71,-504.22 -26.6,-521.71 1270.38,-65.51 2541.06,-112.47 3812.78,-137.97 325.85,-6.52 273.48,47.87 273.48,-278.44l0 -9475.67zm-22307.26 3449.68c-344.47,0 -344.47,-523.76 0,-523.76 333.89,0 607.56,-180.85 839.35,-405.48 606.22,-587.53 879.61,-88.61 1460.02,-116.05 942.72,-44.55 1386.87,-1059.99 846.58,-1779.48 -416.18,-554.18 -887.39,-17.59 -1762.11,-998.22 -228.47,-256.68 162.29,-604.51 390.77,-347.82 770.2,863.41 1192.06,238.48 1788.72,1033.01 790.39,1052.5 128.99,2549.54 -1239.41,2614.23 -428.69,20.26 -845.42,-297.74 -1120.39,-31.26 -330.63,320.4 -731.14,554.83 -1203.53,554.83zm-2831.61 -5030.25c878.23,0 949.31,391.7 1544.08,512.48 693.92,140.93 1266.29,-255.9 1878.31,495.83 680.8,836.13 301.12,2123.93 -721.48,2495.27 -236.44,85.84 -389.05,145.1 -496.24,208.9 -537.55,319.91 -578.32,943.84 -1572.33,943.84 -988.67,0 -1052.33,-824.88 -1688.77,-626.07 -1067.73,333.49 -2211.39,-308.89 -2211.39,-1485 0,-695.66 449.84,-1461.79 1194.4,-1534.3 1039.7,-101.23 834.75,-1010.95 2073.42,-1010.95zm-2024.31 1530.63c-467.75,45.54 -719.74,596.61 -719.74,1014.62 0,820.77 801.03,1214.13 1532.12,985.78 1084.12,-338.64 955.87,601.52 1844.27,601.52 713.73,0 818.33,-577.68 1306.36,-868.14 148.36,-88.3 322.09,-156.7 584.21,-251.87 684.03,-248.39 948.76,-1116.74 494.38,-1674.82 -400.68,-492.14 -1007.23,-198.32 -1575.51,-313.75 -615.02,-124.88 -722.4,-500.2 -1441.78,-500.2 -953.64,0 -727.33,880.57 -2024.31,1006.86zm21047.73 7364.99c178.2,102.39 22.31,373.69 -155.89,271.29l-728.85 -420.78c-178.19,-102.39 -22.31,-373.69 155.9,-271.29l728.84 420.78zm1765.6 208.44c-178.21,102.4 -334.09,-168.91 -155.9,-271.29l728.84 -420.79c178.21,-102.39 334.09,168.91 155.9,271.3l-728.84 420.78zm-2168.96 988.3c344.47,0 344.47,523.77 0,523.77 -981.18,0 -1800.13,-818.98 -1800.13,-1800.12 0,-1513.95 1073.49,-1284.8 1306.1,-2206.51 541.96,-2147.4 3218.13,-1887.02 3505.58,131.23 130.69,917.52 1199.86,660.95 1199.86,2075.28 0,960.54 -839.94,1800.12 -1800.13,1800.12 -344.47,0 -344.47,-523.77 0,-523.77 672.64,0 1276.36,-605.47 1276.36,-1276.35 0,-1151.22 -1019.31,-777.17 -1193.72,-2001.62 -207.55,-1457.34 -2079.66,-1666.55 -2480.55,-78.03 -293.97,1164.84 -1289.73,839.8 -1289.73,2079.65 0,691.96 583.95,1276.35 1276.36,1276.35zm1372.26 2588.61c0,206.69 -314.26,206.69 -314.26,0l0 -5543.19c0,-206.69 314.26,-206.69 314.26,0l0 5543.19zm-10065.25 2052.29c178.19,102.39 22.31,373.69 -155.9,271.29l-728.84 -420.78c-178.19,-102.39 -22.31,-373.69 155.9,-271.29l728.84 420.78zm1669.24 -2557.25c-182.46,96.08 -328.55,-181.35 -146.09,-277.43l474.95 -251.28c182.45,-96.08 328.54,181.35 146.08,277.43l-474.94 251.28zm100.93 2806.43c-178.2,102.4 -334.09,-168.91 -155.89,-271.29l728.84 -420.78c178.21,-102.4 334.09,168.9 155.9,271.29l-728.85 420.78zm-2453.46 -3224.12c-162.06,-126.58 30.65,-373.33 192.73,-246.74l438.31 343.02c162.06,126.58 -30.65,373.33 -192.73,246.73l-438.31 -343.01zm380.34 4059.34c336.4,72.66 225.93,584.15 -110.47,511.49 -642.4,-139.63 -1218.14,-493.37 -1478.4,-1122.65 -253.83,-613.77 -121.35,-1349.41 242.33,-1891.78 55.98,-83.51 120.41,-179.63 -70.4,-398.88 -620.03,-712.38 -489.8,-1633.56 187.43,-2257.74 300.48,-276.91 380.35,-350.53 431.89,-895 246.34,-2601.61 3584.47,-2601.61 3830.81,0 51.54,544.47 131.41,618.09 431.88,895 677.24,624.18 807.46,1545.36 187.44,2257.74 -279.46,321.1 158.02,722.18 256.95,1177.43 83.96,386.26 56.85,770.18 -85.03,1113.23 -260.25,629.28 -835.99,983.02 -1478.39,1122.65 -336.41,72.66 -446.87,-438.83 -110.48,-511.49 467.65,-101.64 914.79,-347.25 1106.02,-809.63 100.32,-242.56 118.17,-520.03 56.39,-804.29 -152.63,-702.41 -766.71,-911.93 -140.34,-1631.61 436.55,-501.57 321.21,-1098.33 -146.52,-1529.4 -416.41,-383.74 -527.1,-485.77 -597.6,-1230.52 -185.6,-1960.44 -2605.86,-1960.44 -2791.45,0 -70.5,744.75 -181.19,846.78 -597.61,1230.52 -467.72,431.07 -583.06,1027.83 -146.52,1529.4 452.99,520.46 269.06,794.77 109.27,1033.12 -263.79,393.4 -378.07,955.79 -193.22,1402.78 191.24,462.38 638.37,707.98 1106.02,809.63zm1238.25 1024.87c0,206.69 -314.26,206.69 -314.26,0l0 -7802.19c0,-206.69 314.26,-206.69 314.26,0l0 7802.19zm-16808.41 5806.72c-15.1,209.33 298.7,226.58 313.4,23.17 15.84,-206.11 37.13,-410.89 65.03,-615.77 27.96,-206.53 -283.93,-244.98 -311.51,-41.5 -28.78,211.34 -50.57,421.45 -66.92,634.1zm7053.37 -8295.55c199.15,-46.57 134.73,-351.62 -70.14,-306.32 -209.12,48.55 -414.92,105.56 -619.17,171.47 -199.04,64.91 -96.84,362.12 97.44,298.78 195.81,-63.32 391.43,-117.38 591.87,-163.93zm-1450.46 502.07c184.07,-85.75 57.21,-373.35 -133.56,-284.47 -194.25,90.59 -382.72,187.16 -570.15,291.11 -177.53,101.45 -28.95,375.1 154.51,273.66 180.7,-100.18 362.64,-192.01 549.2,-280.3zm-1332.69 773.8c170.19,-120.64 -14.82,-374.71 -182.14,-256.08 -174.03,123.84 -342.9,251.65 -509.21,385.86 -158.52,131.07 37.33,374.71 198.82,243.37 161.16,-129.26 323.73,-253.77 492.53,-373.15zm-1182.21 992.68c144.54,-144.55 -72.41,-369.87 -221.56,-222.88 -151.27,150.91 -296.59,304.99 -438.65,464.61 -138.37,157.83 101.64,360.78 236.01,207.49 137.33,-154.22 277.94,-303.32 424.2,-449.22zm-1003.5 1172.6c121.18,-170.96 -135.76,-348.9 -255.49,-182.99 -124.68,173.1 -243.09,349.09 -357.12,529.29 -109.79,176.52 156.3,340.32 266.7,166.22 110.48,-174.56 225.13,-344.84 345.91,-512.52zm-799.97 1320.65c90.6,-183.3 -189.14,-326.55 -281.72,-139.24 -95.21,191.38 -183.02,383.97 -266.2,580.85 -79.81,194.14 212.86,308.7 290.42,120.05 80.5,-190.39 165.42,-376.58 257.5,-561.66zm-573.4 1433.38c60.11,-199.65 -239.47,-287.71 -300.66,-91.42 -62.56,203.79 -118.1,408.64 -167.62,615.99 -46.48,198.57 255.97,276.04 305.86,72.15 47.97,-200.87 101.81,-399.29 162.42,-596.72zm7240.12 -6255.78c-778.75,-310.91 -1558.59,-620.04 -2394.82,-715.7 -5209.48,-596.06 -10238.34,4951.66 -11375.16,9686.82 -57.6,239.97 -72.35,191.61 181.79,191.61l11879.8 0c521.67,0 412.25,66.77 219.55,-346.52 -1235.56,-2649.63 -729.7,-6511.87 1626.29,-8412.58 361.58,-291.67 367.86,-201.89 -137.45,-403.63zm-4615.94 -1325.28c-1423.56,-284.16 -2902.29,-488.58 -4395.36,-635.55 -3456.08,-340.2 -7000.8,-371.9 -10116.36,-373.38l0 9985.72c0,830.64 680.58,1511.22 1511.22,1511.22l3044.32 0c288.61,0 215.95,21.79 279.25,-247.8 1070.89,-4559.55 4967.95,-9084.8 9711.02,-10015.77 686.59,-134.75 705.42,-76.82 -34.09,-224.44zm17109.37 -447.2c-341.83,37.66 -399.03,-482.03 -57.28,-519.68 1391.25,-156.91 2788.46,-282.36 4184.88,-383.21 343.16,-24.21 379.92,497.52 36.83,521.71 -1390.9,100.47 -2778.66,224.9 -4164.43,381.18zm-32144.86 -822.84l0 -1.69 0 -6444.2c0,-1648.22 11.87,-1631.73 -93.35,1.32l-895.05 13892.15c-37.03,574.92 174.32,1158.8 657.19,1439.54 400.83,233.05 331.21,110.42 331.21,-238.17l0 -8648.95zm5649.85 -11491.07c1185.46,0 2146.56,961.1 2146.56,2146.56 0,1185.45 -961.11,2146.57 -2146.56,2146.57 -1185.46,0 -2146.56,-961.11 -2146.56,-2146.57 0,-1185.46 961.1,-2146.56 2146.56,-2146.56zm1147.51 999.05c-293.65,-293.64 -699.37,-475.29 -1147.51,-475.29 -896.29,0 -1622.8,726.51 -1622.8,1622.8 0,896.29 726.51,1622.8 1622.8,1622.8 896.28,0 1622.8,-726.52 1622.8,-1622.8 0,-448.14 -181.65,-853.86 -475.29,-1147.51zm33487.52 -1184.36c-224.39,210.99 -601.36,-143.92 -348.86,-381.49l2671.48 -2519.75c1170.46,-1103.98 2840.77,665.76 1669.25,1770.72l-3200.26 3018.5c-1956.95,1845.76 -4748.85,-1113.15 -2790.9,-2959.91l4522.26 -4265.39c1956.89,-1845.76 4748.87,1113.14 2790.89,2959.9 -250.28,235.48 -608.32,-145.06 -358.05,-380.55 1453.9,-1371.31 -619.66,-3571.28 -2074.79,-2198.8l-4522.27 4265.39c-1453.87,1371.29 619.63,3571.31 2074.81,2198.81 1705.17,-1608.33 1508.45,-1422.77 3200.27,-3018.5 667.28,-629.36 -284.67,-1640.16 -953.16,-1009.62l-2680.67 2520.69zm3023.96 11232.31l0 10690.9c0,505.41 -188.08,984.3 -517.88,1353.23 -275.41,308.15 -397.97,262.05 141.78,228.62 812.65,-62.46 1454.85,-777.68 1392.17,-1597.18l-822.92 -10704.31c-221.93,-2886.8 -193.15,-2809.18 -193.15,28.74zm-9565.77 12725.89l-31397.28 0c-282.32,0 -243.24,-48.23 -224.5,229.96l22.06 327.63c55.82,829.33 771.03,1468.17 1603.12,1416.64l29996.54 -1858.12c2116.56,-131.12 2130.69,-116.11 0.06,-116.11zm-33136.27 -26456.92c368,-363.47 872.9,-588.59 1428.19,-588.59l27780.86 0c1725.53,0 1655.73,11.91 -14.73,-109.74l-27721.76 -2018.94c-861.47,-55.02 -1539,611.62 -1593.33,1455.28l-77.3 1199.92c-27.93,433.6 -49.28,306.39 198.07,62.07z"></path></g></svg>