<svg xmlns="http://www.w3.org/2000/svg" xmlns:xlink="http://www.w3.org/1999/xlink" viewBox="0 0 50 50" version="1.1">
    <g id="surface1">
        <path style=" " d="M 46.0625 1.9375 C 45.976563 1.949219 45.894531 1.96875 45.8125 2 C 45.726563 2.019531 45.640625 2.050781 45.5625 2.09375 L 36.71875 6.53125 L 36.625 6.5625 C 36.558594 6.585938 36.496094 6.617188 36.4375 6.65625 L 24.71875 12.53125 C 24.652344 12.554688 24.589844 12.585938 24.53125 12.625 L 1.5625 24.09375 C 1.210938 24.257813 0.984375 24.613281 0.984375 25 C 0.984375 25.386719 1.210938 25.742188 1.5625 25.90625 L 24.53125 37.375 C 24.550781 37.386719 24.574219 37.398438 24.59375 37.40625 L 36 43.125 C 36.203125 43.492188 36.617188 43.691406 37.03125 43.625 L 45.5625 47.90625 C 46.0625 48.148438 46.664063 47.9375 46.90625 47.4375 C 47.148438 46.9375 46.9375 46.335938 46.4375 46.09375 L 38.46875 42.09375 C 40.0625 39.71875 44 33.0625 44 25 C 44 16.9375 40.0625 10.28125 38.46875 7.90625 L 46.4375 3.90625 C 46.960938 3.78125 47.292969 3.269531 47.191406 2.742188 C 47.089844 2.214844 46.59375 1.859375 46.0625 1.9375 Z M 36.6875 8.78125 C 37.816406 10.40625 42 16.9375 42 25 C 42 33.0625 37.816406 39.59375 36.6875 41.21875 L 26.59375 36.15625 C 28.097656 34.300781 31 30.085938 31 25 C 31 19.914063 28.097656 15.699219 26.59375 13.84375 Z M 25 15.15625 C 26.027344 16.351563 29 20.050781 29 25 C 29 29.949219 26.027344 33.648438 25 34.84375 C 23.972656 33.648438 21 29.949219 21 25 C 21 20.050781 23.972656 16.351563 25 15.15625 Z M 21.625 16.3125 C 20.304688 18.5 19 21.5625 19 25 C 19 28.4375 20.304688 31.5 21.625 33.6875 L 4.25 25 Z "></path>
    </g>
</svg>