<svg xmlns="http://www.w3.org/2000/svg" xmlns:xlink="http://www.w3.org/1999/xlink" viewBox="0 0 50 50" version="1.1">
    <g id="surface1">
        <path style=" " d="M 3 7 C 1.355469 7 0 8.355469 0 10 L 0 40 C 0 41.644531 1.355469 43 3 43 L 47 43 C 48.644531 43 50 41.644531 50 40 L 50 10 C 50 8.355469 48.644531 7 47 7 Z M 3 9 L 47 9 C 47.566406 9 48 9.433594 48 10 L 48 40 C 48 40.566406 47.566406 41 47 41 L 3 41 C 2.433594 41 2 40.566406 2 40 L 2 10 C 2 9.433594 2.433594 9 3 9 Z M 35.84375 17.9375 C 31.800781 17.9375 29.28125 20.792969 29.28125 25.34375 C 29.28125 29.882813 31.75 32.71875 35.84375 32.71875 C 39.925781 32.71875 42.40625 29.875 42.40625 25.34375 C 42.40625 20.804688 39.90625 17.9375 35.84375 17.9375 Z M 21.375 17.96875 C 18.300781 17.96875 16.25 19.613281 16.25 22.125 C 16.25 24.195313 17.417969 25.433594 19.96875 26.03125 L 21.78125 26.46875 C 23.648438 26.90625 24.46875 27.550781 24.46875 28.625 C 24.46875 29.875 23.164063 30.78125 21.40625 30.78125 C 19.519531 30.78125 18.21875 29.933594 18.03125 28.59375 L 15.875 28.59375 C 16.03125 31.113281 18.125 32.71875 21.25 32.71875 C 24.589844 32.71875 26.6875 31.039063 26.6875 28.34375 C 26.6875 26.226563 25.484375 25.050781 22.59375 24.375 L 21.03125 24 C 19.195313 23.570313 18.46875 23.007813 18.46875 22 C 18.46875 20.730469 19.613281 19.875 21.34375 19.875 C 22.984375 19.875 24.109375 20.699219 24.3125 22 L 26.46875 22 C 26.339844 19.628906 24.234375 17.96875 21.375 17.96875 Z M 9.71875 18.28125 L 9.71875 32.375 L 11.90625 32.375 L 11.90625 18.28125 Z M 35.84375 20 C 38.519531 20 40.1875 22.074219 40.1875 25.34375 C 40.1875 28.597656 38.519531 30.6875 35.84375 30.6875 C 33.140625 30.6875 31.5 28.597656 31.5 25.34375 C 31.5 22.070313 33.1875 20 35.84375 20 Z "></path>
    </g>
</svg>