<?xml version="1.0" ?><svg id="Layer_1" style="enable-background:new 0 0 512 512;" version="1.1" viewBox="0 0 512 512" xml:space="preserve" xmlns="http://www.w3.org/2000/svg" xmlns:xlink="http://www.w3.org/1999/xlink"><style type="text/css">
	.st0{fill:#3B4652;}
	.st1{fill:#2B79C2;}
</style><g><path class="st0" d="M450.9,247.6c-0.5-0.9-1-1.8-1.5-2.6c-7.6-13.2-17-25.3-27.6-36c-3.3-3.3-6.6-6.4-10.1-9.4   c-30.1-25.7-69-41.2-111.5-41.6c-0.4,0-0.9,0-1.3,0s-0.9,0-1.3,0c-42.5,0.3-81.4,15.9-111.5,41.6c-12.5,10.7-23.4,23.1-32.5,36.8   c-2.4,3.6-4.6,7.3-6.8,11.1c-4.1,7.4-7.7,15-10.7,23c-15.7-15.7-36.2-36.2-36.2-36.2H39.3L125,361.6v50.3h347.7V332   C472.6,301.4,464.8,272.6,450.9,247.6z M420.8,272.2c-1.1,0.6-2.2,0.9-3.4,0.9c-2.5,0-4.9-1.3-6.1-3.6c-0.3-0.6-0.6-1.1-0.9-1.6   l-0.1-0.2c-5.6-9.7-12.5-18.6-20.5-26.6c-2.4-2.4-4.9-4.7-7.5-6.9c-23.2-19.8-52.9-30.8-83.5-30.8c-3.9,0-7-3.1-7-7   c0-3.9,3.1-7,7-7c33.9,0,66.8,12.1,92.6,34.1c2.8,2.4,5.6,5,8.3,7.7c8.9,8.9,16.5,18.8,22.7,29.5l0.1,0.2c0.3,0.6,0.7,1.2,1.1,1.9   C425.4,266.1,424.2,270.4,420.8,272.2z"/><rect class="st0" height="53.6" width="347.7" x="125" y="425.9"/><path class="st1" d="M176.9,189c3-2.5,6-5,9.1-7.3V93c0-11.7,9.5-21.2,21.2-21.2h183.2c11.7,0,21.2,9.5,21.2,21.2v88.7   c3.1,2.3,6.1,4.8,9.1,7.3c3.7,3.2,7.4,6.6,10.9,10.1c7,7,13.4,14.6,19.2,22.5V93c0-33.4-27.1-60.5-60.5-60.5H207.2   c-33.4,0-60.5,27.1-60.5,60.5v128.7C155.4,209.6,165.6,198.7,176.9,189z"/><path class="st0" d="M268.5,127.8c0,6.7,2.2,12.9,5.8,17.9c7.6-1,15.3-1.5,23-1.6c0.5,0,1,0,1.5,0c0.5,0,1,0,1.5,0   c7.7,0.1,15.4,0.6,23,1.6c3.7-5,5.8-11.2,5.8-17.9c0-16.7-13.6-30.3-30.3-30.3C282.1,97.5,268.5,111.1,268.5,127.8z"/></g></svg>