<svg xmlns="http://www.w3.org/2000/svg" xmlns:xlink="http://www.w3.org/1999/xlink" viewBox="0 0 50 50" version="1.1">
    <g id="surface1">
        <path style=" " d="M 25 0 C 21.019531 0 17.421875 0.683594 14.71875 1.84375 C 13.367188 2.421875 12.210938 3.121094 11.375 3.96875 C 10.539063 4.816406 10 5.855469 10 7 L 10 35 C 10 36.144531 10.539063 37.183594 11.375 38.03125 C 11.828125 38.492188 12.375 38.902344 13 39.28125 L 13 44.28125 C 13 45.246094 13.472656 46.117188 14.15625 46.8125 C 14.839844 47.507813 15.734375 48.066406 16.8125 48.53125 C 18.972656 49.457031 21.847656 50 25 50 C 28.152344 50 31.027344 49.457031 33.1875 48.53125 C 34.265625 48.070313 35.160156 47.507813 35.84375 46.8125 C 36.527344 46.117188 37 45.246094 37 44.28125 L 37 39.28125 C 37.625 38.902344 38.171875 38.492188 38.625 38.03125 C 39.460938 37.183594 40 36.144531 40 35 L 40 7 C 40 5.855469 39.460938 4.816406 38.625 3.96875 C 37.789063 3.121094 36.632813 2.421875 35.28125 1.84375 C 32.578125 0.683594 28.980469 0 25 0 Z M 25 2 C 28.75 2 32.136719 2.675781 34.5 3.6875 C 35.683594 4.195313 36.605469 4.785156 37.1875 5.375 C 37.769531 5.964844 38 6.488281 38 7 C 38 7.511719 37.769531 8.035156 37.1875 8.625 C 36.851563 8.964844 36.390625 9.300781 35.84375 9.625 C 35.941406 9.332031 36 9.035156 36 8.71875 C 36 7.8125 35.570313 6.984375 34.9375 6.34375 C 34.304688 5.703125 33.457031 5.175781 32.46875 4.75 C 30.488281 3.902344 27.878906 3.4375 25 3.4375 C 22.121094 3.4375 19.511719 3.902344 17.53125 4.75 C 16.542969 5.175781 15.695313 5.703125 15.0625 6.34375 C 14.429688 6.984375 14 7.8125 14 8.71875 C 14 9.035156 14.058594 9.332031 14.15625 9.625 C 13.609375 9.300781 13.148438 8.964844 12.8125 8.625 C 12.230469 8.035156 12 7.511719 12 7 C 12 6.488281 12.230469 5.964844 12.8125 5.375 C 13.394531 4.785156 14.316406 4.195313 15.5 3.6875 C 17.863281 2.675781 21.25 2 25 2 Z M 25 5.4375 C 27.644531 5.4375 30.046875 5.890625 31.6875 6.59375 C 32.507813 6.945313 33.121094 7.367188 33.5 7.75 C 33.878906 8.132813 34 8.441406 34 8.71875 C 34 8.996094 33.878906 9.304688 33.5 9.6875 C 33.121094 10.070313 32.507813 10.460938 31.6875 10.8125 C 30.046875 11.515625 27.644531 12 25 12 C 22.355469 12 19.953125 11.515625 18.3125 10.8125 C 17.492188 10.460938 16.878906 10.070313 16.5 9.6875 C 16.121094 9.304688 16 8.996094 16 8.71875 C 16 8.441406 16.121094 8.132813 16.5 7.75 C 16.878906 7.367188 17.492188 6.945313 18.3125 6.59375 C 19.953125 5.890625 22.355469 5.4375 25 5.4375 Z M 12 10.5625 C 12.753906 11.167969 13.671875 11.707031 14.71875 12.15625 C 17.421875 13.316406 21.019531 14 25 14 C 28.980469 14 32.578125 13.316406 35.28125 12.15625 C 36.328125 11.707031 37.246094 11.167969 38 10.5625 L 38 15 C 38 15.511719 37.769531 16.035156 37.1875 16.625 C 36.605469 17.214844 35.683594 17.804688 34.5 18.3125 C 32.136719 19.324219 28.75 20 25 20 C 21.25 20 17.863281 19.324219 15.5 18.3125 C 14.316406 17.804688 13.394531 17.214844 12.8125 16.625 C 12.230469 16.035156 12 15.511719 12 15 Z M 12 18.5625 C 12.753906 19.167969 13.671875 19.707031 14.71875 20.15625 C 17.421875 21.316406 21.019531 22 25 22 C 28.980469 22 32.578125 21.316406 35.28125 20.15625 C 36.328125 19.707031 37.246094 19.167969 38 18.5625 L 38 21 C 38 21.511719 37.769531 22.035156 37.1875 22.625 C 36.605469 23.214844 35.683594 23.804688 34.5 24.3125 C 32.136719 25.324219 28.75 26 25 26 C 21.25 26 17.863281 25.324219 15.5 24.3125 C 14.316406 23.804688 13.394531 23.214844 12.8125 22.625 C 12.230469 22.035156 12 21.511719 12 21 Z M 12 24.5625 C 12.753906 25.167969 13.671875 25.707031 14.71875 26.15625 C 17.421875 27.316406 21.019531 28 25 28 C 28.980469 28 32.578125 27.316406 35.28125 26.15625 C 36.328125 25.707031 37.246094 25.167969 38 24.5625 L 38 35 C 38 35.511719 37.769531 36.035156 37.1875 36.625 C 36.605469 37.214844 35.683594 37.804688 34.5 38.3125 C 32.136719 39.324219 28.75 40 25 40 C 21.25 40 17.863281 39.324219 15.5 38.3125 C 14.316406 37.804688 13.394531 37.214844 12.8125 36.625 C 12.230469 36.035156 12 35.511719 12 35 Z M 25 29 C 23.355469 29 22 30.355469 22 32 L 22 34 C 22 35.644531 23.355469 37 25 37 C 26.644531 37 28 35.644531 28 34 L 28 32 C 28 30.355469 26.644531 29 25 29 Z M 25 31 C 25.5625 31 26 31.4375 26 32 L 26 34 C 26 34.5625 25.5625 35 25 35 C 24.4375 35 24 34.5625 24 34 L 24 32 C 24 31.4375 24.4375 31 25 31 Z M 15 40.25 C 17.671875 41.339844 21.148438 42 25 42 C 28.851563 42 32.328125 41.339844 35 40.25 L 35 44.28125 C 35 44.617188 34.867188 44.972656 34.4375 45.40625 C 34.007813 45.839844 33.285156 46.296875 32.375 46.6875 C 30.554688 47.46875 27.921875 48 25 48 C 22.078125 48 19.445313 47.46875 17.625 46.6875 C 16.714844 46.296875 15.992188 45.839844 15.5625 45.40625 C 15.132813 44.972656 15 44.617188 15 44.28125 Z "></path>
    </g>
</svg>